<?xml version="1.0" standalone="no"?>
<!DOCTYPE svg PUBLIC "-//W3C//DTD SVG 20010904//EN"
 "http://www.w3.org/TR/2001/REC-SVG-20010904/DTD/svg10.dtd">
<svg version="1.0" xmlns="http://www.w3.org/2000/svg"
 width="16.000000pt" height="16.000000pt" viewBox="0 0 16.000000 16.000000"
 preserveAspectRatio="xMidYMid meet">
<metadata>
Created by potrace 1.11, written by Peter Selinger 2001-2013
</metadata>
<g transform="translate(0.000000,16.000000) scale(0.000625,-0.000625)"
fill="#000000" stroke="none">
<path d="M9320 17090 l0 -1970 3510 0 3510 0 0 1970 0 1970 -3510 0 -3510 0 0
-1970z"/>
<path d="M4940 12705 l0 -1975 3510 0 3510 0 0 1975 0 1975 -3510 0 -3510 0 0
-1975z"/>
<path d="M13710 12705 l0 -1975 3510 0 3510 0 0 1975 0 1975 -3510 0 -3510 0
0 -1975z"/>
<path d="M550 8315 l0 -1975 3510 0 3510 0 0 1975 0 1975 -3510 0 -3510 0 0
-1975z"/>
<path d="M9320 8315 l0 -1975 3510 0 3510 0 0 1975 0 1975 -3510 0 -3510 0 0
-1975z"/>
<path d="M18100 8315 l0 -1975 3510 0 3510 0 0 1975 0 1975 -3510 0 -3510 0 0
-1975z"/>
</g>
</svg>
